<svg width="58" height="58" viewBox="0 0 58 58" fill="none" xmlns="http://www.w3.org/2000/svg">
<circle cx="29" cy="29" r="24.1667" fill="#0077B5"/>
<path fill-rule="evenodd" clip-rule="evenodd" d="M22.6862 17.2597C22.6862 18.7642 21.5406 19.9817 19.7492 19.9817C18.0276 19.9817 16.882 18.7642 16.9175 17.2597C16.882 15.6821 18.0275 14.5 19.7835 14.5C21.5406 14.5 22.6518 15.6821 22.6862 17.2597ZM17.0615 39.6564V22.1321H22.5078V39.6552H17.0615V39.6564Z" fill="white"/>
<path fill-rule="evenodd" clip-rule="evenodd" d="M26.8731 27.7247C26.8731 25.5389 26.801 23.6754 26.729 22.1344H31.4596L31.7111 24.5351H31.8186C32.5354 23.4239 34.3268 21.7411 37.2294 21.7411C40.8123 21.7411 43.5 24.1064 43.5 29.2646V39.6586H38.0537V29.9471C38.0537 27.6881 37.266 26.1482 35.2951 26.1482C33.7895 26.1482 32.8943 27.1874 32.5365 28.19C32.3925 28.5489 32.3216 29.0497 32.3216 29.5527V39.6586H26.8753V27.7247H26.8731Z" fill="white"/>
</svg>
