<svg width="95" height="82" viewBox="0 0 95 82" fill="none" xmlns="http://www.w3.org/2000/svg">
<ellipse cx="47.5" cy="41" rx="47.5" ry="41" fill="#C4C4C4"/>
<path d="M25.48 51.3C23.14 51.3 21.16 50.86 19.54 49.98C17.94 49.1 16.72 47.85 15.88 46.23C15.04 44.61 14.62 42.69 14.62 40.47C14.62 38.23 15.05 36.3 15.91 34.68C16.77 33.04 18.01 31.78 19.63 30.9C21.25 30 23.19 29.55 25.45 29.55C26.93 29.55 28.32 29.77 29.62 30.21C30.92 30.63 32 31.22 32.86 31.98L31.57 34.98C30.63 34.24 29.67 33.71 28.69 33.39C27.71 33.07 26.63 32.91 25.45 32.91C23.21 32.91 21.51 33.56 20.35 34.86C19.21 36.16 18.64 38.03 18.64 40.47C18.64 42.93 19.23 44.8 20.41 46.08C21.59 47.36 23.34 48 25.66 48C26.32 48 26.99 47.95 27.67 47.85C28.37 47.73 29.06 47.56 29.74 47.34V42.42H24.88V39.57H32.95V49.74C31.97 50.22 30.81 50.6 29.47 50.88C28.13 51.16 26.8 51.3 25.48 51.3ZM44.6898 51.3C43.0298 51.3 41.4898 51.09 40.0698 50.67C38.6498 50.23 37.4498 49.64 36.4698 48.9L37.6398 45.87C38.6198 46.57 39.6898 47.11 40.8498 47.49C42.0298 47.87 43.3098 48.06 44.6898 48.06C46.2698 48.06 47.4198 47.8 48.1398 47.28C48.8598 46.74 49.2198 46.05 49.2198 45.21C49.2198 44.51 48.9598 43.96 48.4398 43.56C47.9398 43.16 47.0698 42.83 45.8298 42.57L42.5298 41.88C38.7698 41.08 36.8898 39.15 36.8898 36.09C36.8898 34.77 37.2398 33.62 37.9398 32.64C38.6398 31.66 39.6098 30.9 40.8498 30.36C42.0898 29.82 43.5198 29.55 45.1398 29.55C46.5798 29.55 47.9298 29.77 49.1898 30.21C50.4498 30.63 51.4998 31.23 52.3398 32.01L51.1698 34.89C49.5098 33.49 47.4898 32.79 45.1098 32.79C43.7298 32.79 42.6498 33.08 41.8698 33.66C41.0898 34.24 40.6998 35 40.6998 35.94C40.6998 36.66 40.9398 37.24 41.4198 37.68C41.8998 38.1 42.7198 38.43 43.8798 38.67L47.1498 39.36C49.1298 39.78 50.5998 40.44 51.5598 41.34C52.5398 42.24 53.0298 43.44 53.0298 44.94C53.0298 46.2 52.6898 47.31 52.0098 48.27C51.3298 49.23 50.3598 49.98 49.0998 50.52C47.8598 51.04 46.3898 51.3 44.6898 51.3ZM56.3856 51V29.85H59.5956L67.0956 43.68L74.5656 29.85H77.7156V51H74.2356V36.75L68.1756 47.79H65.9256L59.8656 36.81V51H56.3856Z" fill="black"/>
</svg>
